<?xml version="1.0" standalone="no"?>
<!DOCTYPE svg PUBLIC "-//W3C//DTD SVG 20010904//EN"
 "http://www.w3.org/TR/2001/REC-SVG-20010904/DTD/svg10.dtd">
<svg version="1.0" xmlns="http://www.w3.org/2000/svg"
 width="645.000000pt" height="387.000000pt" viewBox="0 0 645.000000 387.000000"
 preserveAspectRatio="xMidYMid meet">
<metadata>
Created by potrace 1.16, written by Peter Selinger 2001-2019
</metadata>
<g transform="translate(0.000000,387.000000) scale(0.100000,-0.100000)"
fill="#000000" stroke="none">
<path d="M3125 2853 c-218 -34 -377 -144 -468 -321 -24 -48 -48 -100 -51 -116
l-7 -29 40 36 c22 20 57 41 78 47 26 8 192 10 540 8 l501 -3 43 -30 c24 -17
57 -52 73 -79 30 -47 31 -52 34 -201 4 -166 -7 -249 -38 -283 -20 -21 -22 -21
-642 -19 l-623 3 -20 39 c-18 36 -20 60 -20 227 0 104 -2 188 -5 188 -3 0 -18
-8 -34 -18 l-28 -17 1 -157 c1 -86 -2 -165 -8 -175 -5 -10 -29 -72 -54 -138
-25 -66 -76 -194 -112 -285 -53 -130 -67 -176 -68 -220 -1 -76 28 -130 97
-175 45 -31 57 -45 79 -101 16 -37 27 -84 27 -110 0 -39 2 -44 18 -36 9 5 44
14 77 21 33 7 65 17 70 21 14 11 114 40 138 40 18 0 19 -5 13 -53 l-7 -54 123
-21 c267 -46 331 -51 302 -22 -5 5 -54 21 -109 36 -55 14 -102 28 -104 30 -3
3 14 23 36 47 48 49 75 101 93 175 l12 53 72 -7 c81 -7 162 15 221 61 43 32
55 32 55 -2 0 -15 7 -53 16 -85 13 -46 26 -67 56 -93 50 -42 97 -65 135 -65
17 0 56 -9 89 -21 53 -19 198 -56 282 -72 32 -6 32 -6 32 33 0 34 -4 42 -30
55 -33 17 -37 27 -17 47 7 7 32 39 55 70 23 32 51 62 61 68 11 5 29 30 41 56
36 74 26 142 -57 374 -38 107 -82 239 -99 292 -16 54 -34 98 -40 98 -15 0 -27
156 -18 238 6 62 6 62 -30 95 -25 23 -41 51 -52 88 -32 109 -94 221 -154 280
-63 61 -177 123 -295 159 -69 21 -251 35 -320 23z m177 -1044 c29 -12 73 -27
98 -35 52 -16 205 -19 273 -6 l47 9 -5 -36 c-31 -187 -50 -228 -159 -337 -191
-188 -285 -231 -415 -188 -35 11 -83 45 -167 118 -127 109 -162 152 -193 231
-22 58 -48 201 -38 211 4 4 38 2 76 -5 39 -6 108 -11 154 -11 75 0 92 4 158
35 87 40 101 42 171 14z"/>
<path d="M3204 1621 c-34 -3 -70 -13 -80 -20 -43 -33 -74 -65 -74 -77 0 -7 21
-22 46 -34 36 -18 65 -23 138 -24 85 -1 96 1 134 27 23 15 42 33 42 40 -1 17
-91 85 -121 90 -13 2 -51 2 -85 -2z"/>
<path d="M2719 2387 c-19 -12 -43 -41 -54 -64 -12 -24 -26 -48 -33 -55 -19
-19 -16 -193 4 -223 8 -13 25 -43 37 -66 42 -81 28 -79 563 -79 l471 0 34 23
c19 12 43 41 55 63 11 23 30 54 41 68 19 23 21 36 16 114 -4 60 -10 93 -22
107 -9 11 -25 38 -36 59 -40 79 -20 76 -561 76 l-481 0 -34 -23z"/>
<path d="M3936 571 c-29 -31 -24 -53 76 -320 27 -75 55 -140 60 -146 8 -7 9
-4 4 10 -4 11 -23 111 -41 222 -19 112 -39 211 -44 222 -15 27 -37 32 -55 12z"/>
<path d="M2462 568 c-15 -20 -20 -42 -42 -198 -12 -80 -27 -172 -35 -205 -7
-33 -12 -61 -10 -63 4 -4 76 185 121 314 40 118 40 164 -1 164 -12 0 -27 -6
-33 -12z"/>
</g>
</svg>
